# xmcd
#
# Track frame offsets: 
#        150
#        16495
#        32819
#        47479
#        62676
#        77075
#        91793
#        106187
#        121016
#        134669
#        152586
#        169735
#        186140
#        204494
#        215754
#        229284
#        244272
#        258699
#        275478
#        287018
#        310373
#        325637
#
# Disc length: 4590 seconds
#
# Revision: 0
# Processed by: cddbd v1.5.2PL0 Copyright (c) Steve Scherf et al.
# Submitted via: ExactAudioCopy v1.1
#
DISCID=3911ec16
DTITLE=Various Artist - De Foute CD 2019 - CD 1
DYEAR=2019
DGENRE=Pop
TTITLE0=André Hazes Jr. - Leef
TTITLE1=Get Ready! - Diep
TTITLE2=Aqua - Barbie Girl
TTITLE3=Steps - 5, 6, 7, 8
TTITLE4=Rednex - Cotton Eye Joe
TTITLE5=Gebroeders Ko - Boten Anna
TTITLE6=Mega Mindy - Mega Mindy Tijd
TTITLE7=Frans Bauer - Heb Je Even Voor Mij
TTITLE8=Ruslana - Wild Dances
TTITLE9=Gigi D'Agostino - L'Amour Toujours
TTITLE10=Paradisio - Bailando
TTITLE11=Kate Ryan - Désenchantée
TTITLE12=Sylver - Turn The Tide
TTITLE13=Samson and Gert - Samsonrock
TTITLE14=Loreen - Euphoria
TTITLE15=Gusttavo Lima - Balada
TTITLE16=Jody Bernal - Que Si, Que No
TTITLE17=Los Del Rio - Macarena
TTITLE18=De Electronica's - De Vogeltjesdans
TTITLE19=Paul De Leeuw - Vlieg Met Me Mee
TTITLE20=Wim Soutaer - Allemaal
TTITLE21=Bart Kaëll - Zeil Je Voor Het Eerst
EXTD=
EXTT0=
EXTT1=
EXTT2=
EXTT3=
EXTT4=
EXTT5=
EXTT6=
EXTT7=
EXTT8=
EXTT9=
EXTT10=
EXTT11=
EXTT12=
EXTT13=
EXTT14=
EXTT15=
EXTT16=
EXTT17=
EXTT18=
EXTT19=
EXTT20=
EXTT21=
PLAYORDER=
